<svg width="409" height="12" viewBox="0 0 409 12" fill="none" xmlns="http://www.w3.org/2000/svg">
<path d="M1.6396 4.90386C1.6396 3.90981 1.97095 3.07573 2.64507 2.40161C3.31348 1.7332 4.14756 1.39614 5.14731 1.39614C6.14136 1.39614 6.97544 1.7332 7.64956 2.40161C8.32368 3.07573 8.66074 3.90981 8.66074 4.90386C8.66074 5.90361 8.32368 6.7377 7.64956 7.41182C6.97544 8.08594 6.14136 8.423 5.14731 8.423C4.14756 8.423 3.31348 8.08594 2.64507 7.41182C1.97095 6.7377 1.6396 5.90361 1.6396 4.90386ZM3.68481 4.90957C3.68481 4.47539 3.82764 4.10977 4.11328 3.81841C4.39893 3.53276 4.76455 3.38423 5.20444 3.38423C5.3644 3.38423 5.52437 3.41279 5.6729 3.4585C5.82144 3.5042 5.94141 3.55562 6.03281 3.60703C6.12422 3.66416 6.20991 3.727 6.28989 3.80127C6.36987 3.87554 6.42129 3.92695 6.44414 3.96123C6.46699 3.99551 6.48413 4.01836 6.48984 4.02979L6.9583 3.56133L6.7812 3.33853C6.65552 3.20142 6.44985 3.05288 6.15278 2.90435C5.86143 2.75581 5.5415 2.68154 5.19873 2.68154C4.55317 2.68154 4.02187 2.89292 3.60483 3.31567C3.18779 3.73843 2.97642 4.26401 2.97642 4.90386C2.97642 5.5437 3.18779 6.075 3.60483 6.49775C4.02187 6.92051 4.55317 7.12617 5.19873 7.12617C5.42153 7.12617 5.63291 7.09761 5.83286 7.03477C6.03853 6.97764 6.19849 6.90908 6.32417 6.8291C6.44985 6.74912 6.56982 6.65771 6.67837 6.55488C6.78691 6.45205 6.85547 6.3835 6.88975 6.34351C6.92402 6.30923 6.94687 6.27495 6.96401 6.2521L6.49556 5.78364L6.36416 5.93218C6.27847 6.04644 6.12993 6.15498 5.91284 6.26353C5.69575 6.37207 5.46152 6.42349 5.19873 6.42349C4.76455 6.42349 4.40464 6.28066 4.11328 5.99502C3.82764 5.70938 3.68481 5.34375 3.68481 4.90957ZM9.41484 4.90386C9.41484 3.73843 9.00352 2.74438 8.17515 1.92173C7.34678 1.10479 6.3356 0.693457 5.1416 0.693457C3.95332 0.693457 2.94214 1.10479 2.11377 1.92173C1.29111 2.74438 0.874072 3.73843 0.874072 4.90386C0.874072 6.075 1.29111 7.06904 2.11377 7.88599C2.94214 8.70864 3.95332 9.11426 5.1416 9.11426C6.3356 9.11426 7.34678 8.70864 8.17515 7.88599C9.00352 7.06904 9.41484 6.075 9.41484 4.90386ZM18.784 9V8.18306H14.5107C14.6193 7.85171 14.8078 7.53179 15.0706 7.229C15.3334 6.93193 15.619 6.67485 15.9275 6.46348C16.236 6.2521 16.5617 6.02358 16.9044 5.77222C17.2472 5.52085 17.5557 5.28091 17.8299 5.05239C18.1042 4.82388 18.327 4.53823 18.5098 4.19546C18.6926 3.8584 18.784 3.49277 18.784 3.09858C18.784 2.41304 18.5383 1.84175 18.0527 1.38472C17.5614 0.927686 16.9273 0.69917 16.1503 0.69917C15.7562 0.69917 15.402 0.767725 15.082 0.904834C14.7621 1.04194 14.5222 1.19048 14.3508 1.35615C14.1794 1.51611 14.0366 1.70464 13.9109 1.92173C13.7852 2.13311 13.7109 2.28164 13.6824 2.36733C13.6595 2.44731 13.6424 2.51587 13.631 2.573L14.3908 2.92148L14.4365 2.77866C14.4593 2.67583 14.5107 2.56157 14.5907 2.42446C14.6707 2.28735 14.7678 2.15024 14.8878 2.01313C15.0078 1.87603 15.1792 1.75605 15.402 1.65894C15.6248 1.56182 15.8704 1.51611 16.1446 1.51611C16.6931 1.51611 17.1215 1.65894 17.43 1.95029C17.7442 2.23594 17.8985 2.6187 17.8985 3.09858C17.8985 3.45278 17.7899 3.78984 17.5729 4.10977C17.3558 4.42397 17.0815 4.68677 16.7559 4.89814C16.436 5.11523 16.0818 5.35518 15.7047 5.62939C15.3277 5.90361 14.9792 6.17783 14.6536 6.45205C14.3336 6.72627 14.0594 7.08047 13.8423 7.52607C13.6252 7.97168 13.511 8.46299 13.511 9H18.784ZM21.1777 4.90957C21.1777 3.84697 21.4119 3.0186 21.8861 2.41304C22.3545 1.81318 22.9201 1.5104 23.5771 1.5104C24.2284 1.5104 24.7939 1.81318 25.2681 2.41304C25.7366 3.01289 25.9765 3.84126 25.9765 4.90386C25.9765 5.96074 25.7423 6.78911 25.2738 7.39468C24.8054 8.00024 24.2398 8.30303 23.5885 8.30303C22.9258 8.30303 22.3545 8.00024 21.8861 7.40039C21.4119 6.80054 21.1777 5.97217 21.1777 4.90957ZM26.8563 4.90957C26.8563 3.64131 26.5307 2.62441 25.8851 1.85317C25.2338 1.08193 24.4683 0.69917 23.5771 0.69917C22.6859 0.69917 21.9204 1.08193 21.2748 1.85317C20.6235 2.62441 20.3036 3.64131 20.3036 4.90957C20.3036 6.17212 20.6235 7.18901 21.2691 7.96025C21.9146 8.73149 22.6859 9.11997 23.5885 9.11997C24.4797 9.11997 25.2453 8.73149 25.8908 7.96025C26.5307 7.18901 26.8563 6.17212 26.8563 4.90957ZM33.5232 9V8.18306H29.25C29.3585 7.85171 29.5471 7.53179 29.8099 7.229C30.0727 6.93193 30.3583 6.67485 30.6668 6.46348C30.9753 6.2521 31.3009 6.02358 31.6437 5.77222C31.9865 5.52085 32.295 5.28091 32.5692 5.05239C32.8434 4.82388 33.0662 4.53823 33.249 4.19546C33.4318 3.8584 33.5232 3.49277 33.5232 3.09858C33.5232 2.41304 33.2776 1.84175 32.792 1.38472C32.3007 0.927686 31.6666 0.69917 30.8896 0.69917C30.4954 0.69917 30.1412 0.767725 29.8213 0.904834C29.5014 1.04194 29.2614 1.19048 29.09 1.35615C28.9187 1.51611 28.7758 1.70464 28.6501 1.92173C28.5245 2.13311 28.4502 2.28164 28.4216 2.36733C28.3988 2.44731 28.3816 2.51587 28.3702 2.573L29.13 2.92148L29.1757 2.77866C29.1986 2.67583 29.25 2.56157 29.33 2.42446C29.41 2.28735 29.5071 2.15024 29.627 2.01313C29.747 1.87603 29.9184 1.75605 30.1412 1.65894C30.364 1.56182 30.6097 1.51611 30.8839 1.51611C31.4323 1.51611 31.8608 1.65894 32.1693 1.95029C32.4835 2.23594 32.6377 2.6187 32.6377 3.09858C32.6377 3.45278 32.5292 3.78984 32.3121 4.10977C32.095 4.42397 31.8208 4.68677 31.4952 4.89814C31.1752 5.11523 30.821 5.35518 30.444 5.62939C30.0669 5.90361 29.7185 6.17783 29.3928 6.45205C29.0729 6.72627 28.7987 7.08047 28.5816 7.52607C28.3645 7.97168 28.2502 8.46299 28.2502 9H33.5232ZM40.8929 9V8.18306H36.6196C36.7282 7.85171 36.9167 7.53179 37.1795 7.229C37.4423 6.93193 37.7279 6.67485 38.0364 6.46348C38.3449 6.2521 38.6706 6.02358 39.0133 5.77222C39.3561 5.52085 39.6646 5.28091 39.9388 5.05239C40.213 4.82388 40.4358 4.53823 40.6187 4.19546C40.8015 3.8584 40.8929 3.49277 40.8929 3.09858C40.8929 2.41304 40.6472 1.84175 40.1616 1.38472C39.6703 0.927686 39.0362 0.69917 38.2592 0.69917C37.865 0.69917 37.5108 0.767725 37.1909 0.904834C36.871 1.04194 36.6311 1.19048 36.4597 1.35615C36.2883 1.51611 36.1455 1.70464 36.0198 1.92173C35.8941 2.13311 35.8198 2.28164 35.7913 2.36733C35.7684 2.44731 35.7513 2.51587 35.7398 2.573L36.4997 2.92148L36.5454 2.77866C36.5682 2.67583 36.6196 2.56157 36.6996 2.42446C36.7796 2.28735 36.8767 2.15024 36.9967 2.01313C37.1166 1.87603 37.288 1.75605 37.5108 1.65894C37.7336 1.56182 37.9793 1.51611 38.2535 1.51611C38.802 1.51611 39.2304 1.65894 39.5389 1.95029C39.8531 2.23594 40.0074 2.6187 40.0074 3.09858C40.0074 3.45278 39.8988 3.78984 39.6817 4.10977C39.4646 4.42397 39.1904 4.68677 38.8648 4.89814C38.5449 5.11523 38.1907 5.35518 37.8136 5.62939C37.4366 5.90361 37.0881 6.17783 36.7625 6.45205C36.4425 6.72627 36.1683 7.08047 35.9512 7.52607C35.7341 7.97168 35.6199 8.46299 35.6199 9H40.8929ZM46.3373 8.18306V5.13809H50.1363V4.32114H46.3373V1.63037H51.0732V0.807715H45.4575V9H51.1932V8.18306H46.3373ZM55.0494 3.38423H53.7012V2.33306C53.7012 1.75034 53.9525 1.45327 54.461 1.45327C54.7352 1.45327 54.9866 1.51611 55.2208 1.63037V0.870557L55.1294 0.830567C55.0608 0.802002 54.958 0.773438 54.8209 0.744873C54.6838 0.710596 54.541 0.69917 54.4039 0.69917C53.924 0.69917 53.5526 0.841992 53.2841 1.12764C53.0156 1.41328 52.8842 1.81318 52.8842 2.33877V3.38994H52.0044V4.14976H52.8842V9.00571H53.7012V4.14976H55.0494V3.38423ZM61.3107 6.49775L61.3679 6.075C61.3679 5.26377 61.1108 4.59536 60.5966 4.06406C60.0825 3.53276 59.4426 3.26426 58.6771 3.26426C57.9344 3.26426 57.2946 3.5499 56.7461 4.12119C56.1977 4.69248 55.9292 5.37803 55.9292 6.18926C55.9292 7.00049 56.2034 7.69175 56.7576 8.26304C57.306 8.83433 57.9687 9.11426 58.7342 9.11426C59.0142 9.11426 59.2884 9.07427 59.5569 8.98857C59.8254 8.90288 60.0425 8.81147 60.2139 8.70864C60.3853 8.60581 60.5395 8.49155 60.688 8.36016C60.8366 8.22876 60.928 8.13735 60.9737 8.08022C61.0194 8.0231 61.0537 7.98311 61.0765 7.94883L60.5509 7.42324L60.351 7.65176C60.2253 7.81172 60.0082 7.96597 59.7111 8.12021C59.4084 8.28018 59.0827 8.35444 58.7342 8.35444C58.2086 8.35444 57.7573 8.17163 57.3688 7.80029C56.9804 7.43467 56.7747 6.99478 56.7461 6.48633L61.3107 6.49775ZM58.6771 4.02979C59.1684 4.02979 59.5854 4.19546 59.9339 4.52681C60.2824 4.85815 60.4881 5.28091 60.5509 5.78364H56.7461C56.809 5.30947 57.0261 4.89814 57.3917 4.54966C57.7573 4.20688 58.1858 4.02979 58.6771 4.02979ZM62.8304 9H63.6473V3.38423H62.8304V9ZM62.7104 1.5104C62.7104 1.65894 62.7561 1.78462 62.8589 1.88745C62.9618 1.99028 63.0874 2.03599 63.236 2.03599C63.3845 2.03599 63.5045 1.99028 63.6073 1.88745C63.7102 1.78462 63.7616 1.65894 63.7616 1.5104C63.7616 1.36187 63.7102 1.24189 63.6073 1.13906C63.5045 1.03623 63.3845 0.984815 63.236 0.984815C63.0874 0.984815 62.9618 1.03623 62.8589 1.13906C62.7561 1.24189 62.7104 1.36187 62.7104 1.5104ZM66.0524 2.80151C66.0524 3.18999 65.8925 3.38423 65.584 3.38423H64.9384V4.14404H65.9953V7.48037C65.9953 8.00596 66.1267 8.40586 66.4009 8.6915C66.6751 8.97715 67.0522 9.11426 67.5378 9.11426C67.8349 9.11997 68.0977 9.06284 68.3319 8.94287V8.18306L68.2291 8.22876C68.1605 8.25161 68.0691 8.28018 67.9434 8.30874C67.8177 8.34302 67.6978 8.35444 67.5721 8.35444C67.0636 8.36016 66.8123 8.0688 66.8123 7.48037V4.14404H68.0405V3.38423H66.8123V1.5104H66.0524V2.80151ZM73.7648 6.19497C73.7648 6.80054 73.5592 7.3147 73.1593 7.73174C72.7594 8.14878 72.2738 8.35444 71.7139 8.35444C71.1541 8.35444 70.6685 8.14878 70.2686 7.72603C69.8687 7.30327 69.6687 6.79482 69.6687 6.18926C69.6687 5.58369 69.8687 5.07524 70.2686 4.6582C70.6685 4.24116 71.1541 4.02979 71.7139 4.02979C72.2738 4.02979 72.7594 4.24116 73.1593 4.6582C73.5592 5.07524 73.7648 5.5894 73.7648 6.19497ZM68.8518 6.19497C68.8518 7.01763 69.126 7.70889 69.6858 8.27446C70.2457 8.83433 70.9198 9.11997 71.7196 9.11997C72.5137 9.11997 73.1878 8.83433 73.742 8.27446C74.3019 7.70889 74.5761 7.01763 74.5761 6.19497C74.5761 5.37231 74.3019 4.68105 73.742 4.11548C73.1878 3.5499 72.5137 3.26426 71.7196 3.26426C70.9198 3.26426 70.2457 3.5499 69.6858 4.11548C69.126 4.68105 68.8518 5.37231 68.8518 6.19497ZM76.2214 7.94883L75.1702 10.2283L75.6958 10.5196L77.044 8.41729L76.2214 7.94883ZM81.1402 0.807715V9H82.02V5.25806H85.7619V4.4354H82.02V1.63037H86.6988V0.807715H81.1402ZM87.9899 9H88.8069V3.38423H87.9899V9ZM87.87 1.5104C87.87 1.65894 87.9157 1.78462 88.0185 1.88745C88.1213 1.99028 88.247 2.03599 88.3956 2.03599C88.5441 2.03599 88.6641 1.99028 88.7669 1.88745C88.8697 1.78462 88.9211 1.65894 88.9211 1.5104C88.9211 1.36187 88.8697 1.24189 88.7669 1.13906C88.6641 1.03623 88.5441 0.984815 88.3956 0.984815C88.247 0.984815 88.1213 1.03623 88.0185 1.13906C87.9157 1.24189 87.87 1.36187 87.87 1.5104ZM94.7769 8.65151C94.7769 9.23423 94.5826 9.71982 94.2056 10.1083C93.8285 10.5025 93.3715 10.6967 92.8459 10.6967C92.6288 10.6967 92.4174 10.6682 92.2118 10.5996C92.0061 10.5311 91.8347 10.4568 91.709 10.3768C91.5776 10.2968 91.452 10.1997 91.3377 10.0912C91.2234 9.98262 91.1435 9.90835 91.1092 9.86265C91.0749 9.81694 91.0463 9.78267 91.0349 9.75981L90.5093 10.2854L90.6007 10.4054C90.6579 10.4911 90.7493 10.5882 90.8807 10.7024C91.0121 10.8167 91.1663 10.931 91.3377 11.0452C91.5091 11.1595 91.7262 11.2566 91.9947 11.3366C92.2632 11.4166 92.5488 11.4565 92.8459 11.4565C93.6114 11.4565 94.257 11.188 94.794 10.6453C95.331 10.1083 95.5995 9.43989 95.5995 8.65151V3.38423H94.7769V4.20117L94.7083 4.10977C94.6626 4.05264 94.5883 3.97266 94.4855 3.87554C94.3827 3.78413 94.2627 3.68701 94.1256 3.59561C93.9828 3.5042 93.8057 3.42422 93.5886 3.36138C93.3715 3.29854 93.143 3.26426 92.903 3.26426C92.1946 3.26426 91.5776 3.53848 91.0521 4.08691C90.5322 4.63535 90.2694 5.29805 90.2694 6.075C90.2694 6.85767 90.5322 7.52036 91.0578 8.0688C91.5833 8.61724 92.1946 8.89146 92.903 8.89146C93.143 8.89146 93.3772 8.85718 93.5943 8.78862C93.8114 8.72007 93.9885 8.6458 94.1199 8.56582C94.257 8.48584 94.377 8.38872 94.4912 8.28018C94.6055 8.16592 94.674 8.09165 94.7026 8.05166C94.7369 8.00596 94.7597 7.97739 94.7711 7.95454L94.7769 8.65151ZM91.0863 6.08071C91.0863 5.50942 91.2749 5.02383 91.6405 4.62964C92.0061 4.22974 92.4289 4.0355 92.903 4.0355C93.4115 4.0355 93.8514 4.22974 94.217 4.62393C94.5883 5.0124 94.7711 5.498 94.7711 6.08071C94.7711 6.65771 94.5883 7.14331 94.217 7.5375C93.8514 7.92598 93.4115 8.12593 92.903 8.12593C92.4289 8.12593 92.0061 7.92598 91.6405 7.53179C91.2749 7.13188 91.0863 6.652 91.0863 6.08071ZM101.564 9H102.386V3.38423H101.564V6.48633C101.564 7.03477 101.398 7.48037 101.072 7.82886C100.741 8.18306 100.341 8.35444 99.867 8.35444C99.4214 8.35444 99.0501 8.19448 98.7473 7.87456C98.4388 7.55464 98.2903 7.14902 98.2903 6.65771V3.38423H97.4733V6.65771C97.4733 7.38896 97.6847 7.97739 98.1189 8.43442C98.5531 8.89146 99.0958 9.11426 99.7528 9.11426C99.9756 9.11426 100.193 9.08569 100.404 9.02285C100.615 8.96572 100.787 8.89717 100.918 8.81719C101.044 8.73721 101.164 8.65151 101.278 8.54868C101.392 8.44585 101.461 8.37729 101.495 8.3373C101.524 8.29731 101.547 8.26304 101.564 8.24019V9ZM107.242 3.26426H107.008C106.763 3.26426 106.528 3.29854 106.311 3.36138C106.094 3.42422 105.917 3.49277 105.786 3.57275C105.654 3.65273 105.534 3.73843 105.42 3.84126C105.306 3.94409 105.231 4.01265 105.203 4.05264C105.169 4.09263 105.146 4.1269 105.134 4.14976V3.38994H104.317V9.00571H105.134V5.90361C105.134 5.3666 105.306 4.92671 105.648 4.59536C105.991 4.2583 106.403 4.09263 106.888 4.09263H107.242V3.26426ZM108.351 9H109.168V3.38423H108.351V9ZM108.231 1.5104C108.231 1.65894 108.276 1.78462 108.379 1.88745C108.482 1.99028 108.608 2.03599 108.756 2.03599C108.905 2.03599 109.025 1.99028 109.128 1.88745C109.23 1.78462 109.282 1.65894 109.282 1.5104C109.282 1.36187 109.23 1.24189 109.128 1.13906C109.025 1.03623 108.905 0.984815 108.756 0.984815C108.608 0.984815 108.482 1.03623 108.379 1.13906C108.276 1.24189 108.231 1.36187 108.231 1.5104ZM111.864 3.38423H111.047V9H111.864V5.8979C111.864 5.35518 112.03 4.90957 112.367 4.56108C112.698 4.20688 113.115 4.0355 113.618 4.0355C114.064 4.0355 114.423 4.18403 114.709 4.4811C114.995 4.77817 115.138 5.17808 115.138 5.66938V9.00571H115.96V5.66938C115.96 4.94385 115.749 4.36113 115.326 3.92124C114.903 3.48706 114.349 3.26426 113.675 3.26426C113.447 3.26426 113.229 3.29854 113.018 3.36709C112.807 3.43564 112.635 3.50991 112.51 3.58989C112.384 3.66987 112.264 3.76699 112.15 3.87554C112.035 3.9898 111.961 4.06406 111.933 4.10405C111.898 4.14976 111.876 4.17832 111.864 4.20117V3.38423ZM122.336 6.19497C122.336 6.80054 122.13 7.3147 121.73 7.73174C121.33 8.14878 120.845 8.35444 120.285 8.35444C119.725 8.35444 119.239 8.14878 118.84 7.72603C118.44 7.30327 118.24 6.79482 118.24 6.18926C118.24 5.58369 118.44 5.07524 118.84 4.6582C119.239 4.24116 119.725 4.02979 120.285 4.02979C120.845 4.02979 121.33 4.24116 121.73 4.6582C122.13 5.07524 122.336 5.5894 122.336 6.19497ZM117.423 6.19497C117.423 7.01763 117.697 7.70889 118.257 8.27446C118.817 8.83433 119.491 9.11997 120.291 9.11997C121.085 9.11997 121.759 8.83433 122.313 8.27446C122.873 7.70889 123.147 7.01763 123.147 6.19497C123.147 5.37231 122.873 4.68105 122.313 4.11548C121.759 3.5499 121.085 3.26426 120.291 3.26426C119.491 3.26426 118.817 3.5499 118.257 4.11548C117.697 4.68105 117.423 5.37231 117.423 6.19497ZM131.819 6.49775L131.876 6.075C131.876 5.26377 131.619 4.59536 131.105 4.06406C130.591 3.53276 129.951 3.26426 129.186 3.26426C128.443 3.26426 127.803 3.5499 127.255 4.12119C126.706 4.69248 126.438 5.37803 126.438 6.18926C126.438 7.00049 126.712 7.69175 127.266 8.26304C127.815 8.83433 128.477 9.11426 129.243 9.11426C129.523 9.11426 129.797 9.07427 130.065 8.98857C130.334 8.90288 130.551 8.81147 130.722 8.70864C130.894 8.60581 131.048 8.49155 131.197 8.36016C131.345 8.22876 131.436 8.13735 131.482 8.08022C131.528 8.0231 131.562 7.98311 131.585 7.94883L131.059 7.42324L130.859 7.65176C130.734 7.81172 130.517 7.96597 130.22 8.12021C129.917 8.28018 129.591 8.35444 129.243 8.35444C128.717 8.35444 128.266 8.17163 127.877 7.80029C127.489 7.43467 127.283 6.99478 127.255 6.48633L131.819 6.49775ZM129.186 4.02979C129.677 4.02979 130.094 4.19546 130.442 4.52681C130.791 4.85815 130.997 5.28091 131.059 5.78364H127.255C127.317 5.30947 127.535 4.89814 127.9 4.54966C128.266 4.20688 128.694 4.02979 129.186 4.02979ZM143.348 2.33306V9H144.222V0.807715H143.462L140.069 5.25806L136.675 0.807715H135.915V9H136.795V2.33306L140.069 6.65771L143.348 2.33306ZM147.558 5.78364C147.027 5.87505 146.621 6.06357 146.341 6.34922C146.056 6.63486 145.919 7.01191 145.919 7.48037C145.919 7.90884 146.107 8.28589 146.49 8.61724C146.873 8.94858 147.347 9.11426 147.907 9.11426C148.13 9.11426 148.347 9.08569 148.558 9.02285C148.769 8.96572 148.941 8.89717 149.072 8.81719C149.198 8.73721 149.318 8.65151 149.432 8.54868C149.546 8.44585 149.615 8.37729 149.649 8.3373C149.683 8.29731 149.706 8.26304 149.723 8.24019V9H150.54V5.42944C150.54 4.81816 150.329 4.304 149.906 3.88696C149.483 3.47563 148.958 3.26426 148.318 3.26426C148.067 3.26426 147.815 3.30425 147.575 3.37852C147.335 3.45278 147.141 3.53848 146.993 3.62988C146.844 3.727 146.701 3.83555 146.564 3.95552C146.427 4.07549 146.341 4.16118 146.301 4.20688C146.261 4.25259 146.233 4.29258 146.21 4.32114L146.736 4.84673L146.913 4.64678C147.027 4.50967 147.215 4.37256 147.478 4.23545C147.741 4.09834 148.021 4.02979 148.318 4.02979C148.729 4.02979 149.066 4.16118 149.329 4.41826C149.592 4.68105 149.723 5.01812 149.723 5.42944L147.558 5.78364ZM147.907 8.35444C147.541 8.35444 147.25 8.27446 147.044 8.10879C146.838 7.94312 146.736 7.73174 146.736 7.48037C146.736 6.95479 147.09 6.62344 147.792 6.48633L149.723 6.13213V6.48633C149.723 7.04048 149.552 7.4918 149.209 7.83457C148.867 8.18306 148.432 8.35444 147.907 8.35444ZM156.676 6.19497C156.676 6.77197 156.47 7.27471 156.059 7.70889C155.648 8.14307 155.191 8.35444 154.682 8.35444C154.202 8.35444 153.768 8.14878 153.385 7.72603C153.003 7.30327 152.808 6.79482 152.808 6.19497C152.808 5.59512 153.003 5.08667 153.385 4.66392C153.768 4.24116 154.202 4.02979 154.682 4.02979C155.191 4.02979 155.648 4.24688 156.059 4.68105C156.47 5.11523 156.676 5.61797 156.676 6.19497ZM156.676 11.4565H157.493V3.38423H156.676V4.26401L156.596 4.15547C156.539 4.08691 156.453 4.00693 156.339 3.9041C156.225 3.80698 156.093 3.70986 155.939 3.61846C155.791 3.52705 155.602 3.44136 155.379 3.3728C155.156 3.30425 154.922 3.26997 154.682 3.26997C153.968 3.26997 153.34 3.55562 152.803 4.13262C152.266 4.70391 151.997 5.39517 151.997 6.19497C151.997 6.99478 152.266 7.68604 152.803 8.25732C153.34 8.82861 153.968 9.11997 154.682 9.11997C154.922 9.11997 155.156 9.08569 155.385 9.01714C155.613 8.94858 155.796 8.8686 155.939 8.7772C156.088 8.68579 156.219 8.58867 156.345 8.47441C156.47 8.36016 156.556 8.27446 156.59 8.22876C156.63 8.18306 156.659 8.14878 156.676 8.12593V11.4565ZM163.457 9H164.28V3.38423H163.457V6.48633C163.457 7.03477 163.292 7.48037 162.966 7.82886C162.635 8.18306 162.235 8.35444 161.761 8.35444C161.315 8.35444 160.944 8.19448 160.641 7.87456C160.332 7.55464 160.184 7.14902 160.184 6.65771V3.38423H159.367V6.65771C159.367 7.38896 159.578 7.97739 160.012 8.43442C160.447 8.89146 160.989 9.11426 161.646 9.11426C161.869 9.11426 162.086 9.08569 162.298 9.02285C162.509 8.96572 162.68 8.89717 162.812 8.81719C162.937 8.73721 163.057 8.65151 163.172 8.54868C163.286 8.44585 163.354 8.37729 163.389 8.3373C163.417 8.29731 163.44 8.26304 163.457 8.24019V9ZM166.211 9H167.028V3.38423H166.211V9ZM166.091 1.5104C166.091 1.65894 166.137 1.78462 166.239 1.88745C166.342 1.99028 166.468 2.03599 166.616 2.03599C166.765 2.03599 166.885 1.99028 166.988 1.88745C167.091 1.78462 167.142 1.65894 167.142 1.5104C167.142 1.36187 167.091 1.24189 166.988 1.13906C166.885 1.03623 166.765 0.984815 166.616 0.984815C166.468 0.984815 166.342 1.03623 166.239 1.13906C166.137 1.24189 166.091 1.36187 166.091 1.5104ZM170.136 5.78364C169.604 5.87505 169.199 6.06357 168.919 6.34922C168.633 6.63486 168.496 7.01191 168.496 7.48037C168.496 7.90884 168.685 8.28589 169.067 8.61724C169.45 8.94858 169.924 9.11426 170.484 9.11426C170.707 9.11426 170.924 9.08569 171.135 9.02285C171.347 8.96572 171.518 8.89717 171.65 8.81719C171.775 8.73721 171.895 8.65151 172.009 8.54868C172.124 8.44585 172.192 8.37729 172.227 8.3373C172.261 8.29731 172.284 8.26304 172.301 8.24019V9H173.118V5.42944C173.118 4.81816 172.906 4.304 172.484 3.88696C172.061 3.47563 171.535 3.26426 170.895 3.26426C170.644 3.26426 170.393 3.30425 170.153 3.37852C169.913 3.45278 169.719 3.53848 169.57 3.62988C169.421 3.727 169.279 3.83555 169.142 3.95552C169.004 4.07549 168.919 4.16118 168.879 4.20688C168.839 4.25259 168.81 4.29258 168.787 4.32114L169.313 4.84673L169.49 4.64678C169.604 4.50967 169.793 4.37256 170.056 4.23545C170.318 4.09834 170.598 4.02979 170.895 4.02979C171.307 4.02979 171.644 4.16118 171.907 4.41826C172.169 4.68105 172.301 5.01812 172.301 5.42944L170.136 5.78364ZM170.484 8.35444C170.118 8.35444 169.827 8.27446 169.621 8.10879C169.416 7.94312 169.313 7.73174 169.313 7.48037C169.313 6.95479 169.667 6.62344 170.37 6.48633L172.301 6.13213V6.48633C172.301 7.04048 172.129 7.4918 171.787 7.83457C171.444 8.18306 171.01 8.35444 170.484 8.35444ZM179.076 8.65151C179.076 9.23423 178.882 9.71982 178.505 10.1083C178.128 10.5025 177.671 10.6967 177.145 10.6967C176.928 10.6967 176.717 10.6682 176.511 10.5996C176.306 10.5311 176.134 10.4568 176.008 10.3768C175.877 10.2968 175.751 10.1997 175.637 10.0912C175.523 9.98262 175.443 9.90835 175.409 9.86265C175.374 9.81694 175.346 9.78267 175.334 9.75981L174.809 10.2854L174.9 10.4054C174.957 10.4911 175.049 10.5882 175.18 10.7024C175.311 10.8167 175.466 10.931 175.637 11.0452C175.808 11.1595 176.026 11.2566 176.294 11.3366C176.563 11.4166 176.848 11.4565 177.145 11.4565C177.911 11.4565 178.556 11.188 179.093 10.6453C179.63 10.1083 179.899 9.43989 179.899 8.65151V3.38423H179.076V4.20117L179.008 4.10977C178.962 4.05264 178.888 3.97266 178.785 3.87554C178.682 3.78413 178.562 3.68701 178.425 3.59561C178.282 3.5042 178.105 3.42422 177.888 3.36138C177.671 3.29854 177.442 3.26426 177.202 3.26426C176.494 3.26426 175.877 3.53848 175.351 4.08691C174.832 4.63535 174.569 5.29805 174.569 6.075C174.569 6.85767 174.832 7.52036 175.357 8.0688C175.883 8.61724 176.494 8.89146 177.202 8.89146C177.442 8.89146 177.677 8.85718 177.894 8.78862C178.111 8.72007 178.288 8.6458 178.419 8.56582C178.556 8.48584 178.676 8.38872 178.791 8.28018C178.905 8.16592 178.973 8.09165 179.002 8.05166C179.036 8.00596 179.059 7.97739 179.071 7.95454L179.076 8.65151ZM175.386 6.08071C175.386 5.50942 175.574 5.02383 175.94 4.62964C176.306 4.22974 176.728 4.0355 177.202 4.0355C177.711 4.0355 178.151 4.22974 178.516 4.62393C178.888 5.0124 179.071 5.498 179.071 6.08071C179.071 6.65771 178.888 7.14331 178.516 7.5375C178.151 7.92598 177.711 8.12593 177.202 8.12593C176.728 8.12593 176.306 7.92598 175.94 7.53179C175.574 7.13188 175.386 6.652 175.386 6.08071ZM186.743 6.49775L186.8 6.075C186.8 5.26377 186.543 4.59536 186.029 4.06406C185.515 3.53276 184.875 3.26426 184.109 3.26426C183.367 3.26426 182.727 3.5499 182.178 4.12119C181.63 4.69248 181.361 5.37803 181.361 6.18926C181.361 7.00049 181.636 7.69175 182.19 8.26304C182.738 8.83433 183.401 9.11426 184.166 9.11426C184.446 9.11426 184.721 9.07427 184.989 8.98857C185.258 8.90288 185.475 8.81147 185.646 8.70864C185.817 8.60581 185.972 8.49155 186.12 8.36016C186.269 8.22876 186.36 8.13735 186.406 8.08022C186.452 8.0231 186.486 7.98311 186.509 7.94883L185.983 7.42324L185.783 7.65176C185.658 7.81172 185.44 7.96597 185.143 8.12021C184.841 8.28018 184.515 8.35444 184.166 8.35444C183.641 8.35444 183.19 8.17163 182.801 7.80029C182.413 7.43467 182.207 6.99478 182.178 6.48633L186.743 6.49775ZM184.109 4.02979C184.601 4.02979 185.018 4.19546 185.366 4.52681C185.715 4.85815 185.92 5.28091 185.983 5.78364H182.178C182.241 5.30947 182.458 4.89814 182.824 4.54966C183.19 4.20688 183.618 4.02979 184.109 4.02979ZM195.746 9H196.569V5.66367C196.569 4.90957 196.363 4.32114 195.964 3.89839C195.564 3.47563 195.044 3.26426 194.404 3.26426C194.135 3.26426 193.884 3.30425 193.656 3.3728C193.427 3.44136 193.244 3.52134 193.113 3.61274C192.981 3.70415 192.861 3.80127 192.747 3.91553C192.633 4.02979 192.559 4.11548 192.536 4.16118C192.507 4.20688 192.484 4.24116 192.467 4.26401L192.41 4.15547C192.37 4.08691 192.302 4.00693 192.21 3.9041C192.119 3.80698 192.005 3.70986 191.879 3.61846C191.753 3.52705 191.576 3.44136 191.359 3.3728C191.142 3.30425 190.908 3.26997 190.656 3.26997C190.445 3.26997 190.251 3.29854 190.068 3.35566C189.885 3.41279 189.737 3.48135 189.622 3.55562C189.508 3.62988 189.399 3.71558 189.308 3.80698C189.217 3.89839 189.16 3.96694 189.137 4.00122C189.114 4.0355 189.091 4.06978 189.08 4.09263V3.38994H188.263V9.00571H189.08V5.90361C189.08 5.33232 189.222 4.88101 189.514 4.54395C189.805 4.20117 190.165 4.0355 190.599 4.0355C191.022 4.0355 191.359 4.17832 191.616 4.46396C191.873 4.74961 192.005 5.15522 192.005 5.66938V9.00571H192.821V5.90361C192.821 5.33232 192.964 4.88101 193.261 4.54395C193.553 4.20117 193.913 4.0355 194.347 4.0355C194.764 4.0355 195.101 4.17261 195.358 4.45825C195.615 4.7439 195.746 5.1438 195.746 5.66938V9ZM201.545 6.19497C201.545 5.61797 201.745 5.11523 202.156 4.68105C202.568 4.24688 203.025 4.02979 203.533 4.02979C204.013 4.02979 204.447 4.24116 204.83 4.66392C205.213 5.08667 205.407 5.59512 205.407 6.19497C205.407 6.79482 205.213 7.30327 204.83 7.72603C204.447 8.14878 204.013 8.35444 203.533 8.35444C203.025 8.35444 202.568 8.14307 202.156 7.70889C201.745 7.27471 201.545 6.77197 201.545 6.19497ZM201.545 0.807715H200.728V9H201.545V8.12021L201.631 8.22876C201.682 8.29731 201.762 8.38301 201.876 8.48013C201.991 8.57725 202.122 8.67437 202.276 8.76577C202.425 8.86289 202.613 8.94287 202.836 9.01143C203.059 9.07998 203.293 9.11426 203.533 9.11426C204.253 9.11426 204.881 8.82861 205.418 8.25732C205.955 7.68604 206.224 6.99478 206.224 6.19497C206.224 5.39517 205.95 4.70391 205.413 4.13262C204.876 3.55562 204.247 3.26997 203.533 3.26997C203.293 3.26997 203.059 3.30425 202.83 3.3728C202.602 3.44136 202.419 3.52134 202.276 3.61274C202.128 3.70415 201.996 3.80698 201.871 3.92124C201.745 4.0355 201.665 4.11548 201.625 4.16118C201.585 4.20688 201.556 4.24688 201.545 4.26973V0.807715ZM208.915 9.81694C208.703 10.4054 208.349 10.6967 207.852 10.6967C207.658 10.6967 207.464 10.6567 207.269 10.5768V11.3423L207.349 11.3651C207.406 11.388 207.498 11.4108 207.612 11.428C207.726 11.4508 207.846 11.4565 207.972 11.4565C208.378 11.4565 208.715 11.3366 208.983 11.0852C209.246 10.8338 209.497 10.4111 209.732 9.81694L212.308 3.38423H211.428L209.617 7.94883L207.801 3.38423H206.921L209.206 9L208.915 9.81694ZM215.473 4.90386C215.473 6.075 215.879 7.06904 216.701 7.88599C217.518 8.70864 218.512 9.11426 219.683 9.11426C220.095 9.11426 220.5 9.05713 220.895 8.93716C221.289 8.81719 221.609 8.68008 221.86 8.52583C222.111 8.37729 222.346 8.2002 222.563 8.00596C222.78 7.81172 222.917 7.68032 222.986 7.60605C223.054 7.53179 223.1 7.46895 223.134 7.42324V4.7896H220.386V5.60654H222.26V7.18901L222.163 7.30327C222.1 7.38325 221.997 7.48037 221.854 7.5832C221.706 7.68604 221.54 7.79458 221.352 7.90313C221.157 8.01167 220.917 8.10308 220.62 8.18306C220.323 8.26304 220.009 8.29731 219.683 8.29731C218.747 8.29731 217.952 7.97168 217.313 7.32041C216.667 6.66914 216.347 5.86362 216.347 4.90386C216.347 3.94409 216.667 3.13857 217.313 2.4873C217.952 1.83604 218.747 1.5104 219.683 1.5104C220.032 1.5104 220.369 1.56182 220.689 1.66465C221.009 1.76748 221.266 1.88174 221.46 2.00742C221.654 2.13311 221.837 2.27021 222.009 2.43018C222.174 2.59014 222.283 2.70439 222.329 2.76724C222.374 2.83008 222.409 2.88149 222.431 2.91577L223.02 2.39019L222.888 2.21309C222.803 2.09883 222.666 1.95601 222.477 1.78462C222.289 1.61895 222.071 1.45327 221.82 1.2876C221.569 1.12764 221.255 0.984815 220.872 0.870557C220.495 0.756299 220.095 0.693457 219.678 0.693457C218.512 0.693457 217.518 1.10479 216.696 1.92173C215.879 2.74438 215.473 3.73843 215.473 4.90386ZM229.041 9H229.864V3.38423H229.041V6.48633C229.041 7.03477 228.876 7.48037 228.55 7.82886C228.219 8.18306 227.819 8.35444 227.344 8.35444C226.899 8.35444 226.528 8.19448 226.225 7.87456C225.916 7.55464 225.768 7.14902 225.768 6.65771V3.38423H224.951V6.65771C224.951 7.38896 225.162 7.97739 225.596 8.43442C226.031 8.89146 226.573 9.11426 227.23 9.11426C227.453 9.11426 227.67 9.08569 227.881 9.02285C228.093 8.96572 228.264 8.89717 228.396 8.81719C228.521 8.73721 228.641 8.65151 228.756 8.54868C228.87 8.44585 228.938 8.37729 228.973 8.3373C229.001 8.29731 229.024 8.26304 229.041 8.24019V9ZM236.765 6.49775L236.822 6.075C236.822 5.26377 236.565 4.59536 236.051 4.06406C235.537 3.53276 234.897 3.26426 234.131 3.26426C233.389 3.26426 232.749 3.5499 232.2 4.12119C231.652 4.69248 231.383 5.37803 231.383 6.18926C231.383 7.00049 231.658 7.69175 232.212 8.26304C232.76 8.83433 233.423 9.11426 234.189 9.11426C234.468 9.11426 234.743 9.07427 235.011 8.98857C235.28 8.90288 235.497 8.81147 235.668 8.70864C235.84 8.60581 235.994 8.49155 236.142 8.36016C236.291 8.22876 236.382 8.13735 236.428 8.08022C236.474 8.0231 236.508 7.98311 236.531 7.94883L236.005 7.42324L235.805 7.65176C235.68 7.81172 235.462 7.96597 235.165 8.12021C234.863 8.28018 234.537 8.35444 234.189 8.35444C233.663 8.35444 233.212 8.17163 232.823 7.80029C232.435 7.43467 232.229 6.99478 232.2 6.48633L236.765 6.49775ZM234.131 4.02979C234.623 4.02979 235.04 4.19546 235.388 4.52681C235.737 4.85815 235.942 5.28091 236.005 5.78364H232.2C232.263 5.30947 232.48 4.89814 232.846 4.54966C233.212 4.20688 233.64 4.02979 234.131 4.02979ZM241.21 3.26426H240.975C240.73 3.26426 240.496 3.29854 240.278 3.36138C240.061 3.42422 239.884 3.49277 239.753 3.57275C239.621 3.65273 239.502 3.73843 239.387 3.84126C239.273 3.94409 239.199 4.01265 239.17 4.05264C239.136 4.09263 239.113 4.1269 239.102 4.14976V3.38994H238.285V9.00571H239.102V5.90361C239.102 5.3666 239.273 4.92671 239.616 4.59536C239.959 4.2583 240.37 4.09263 240.855 4.09263H241.21V3.26426ZM245.243 3.26426H245.009C244.763 3.26426 244.529 3.29854 244.312 3.36138C244.095 3.42422 243.918 3.49277 243.786 3.57275C243.655 3.65273 243.535 3.73843 243.421 3.84126C243.306 3.94409 243.232 4.01265 243.203 4.05264C243.169 4.09263 243.146 4.1269 243.135 4.14976V3.38994H242.318V9.00571H243.135V5.90361C243.135 5.3666 243.306 4.92671 243.649 4.59536C243.992 4.2583 244.403 4.09263 244.889 4.09263H245.243V3.26426ZM251.321 6.49775L251.379 6.075C251.379 5.26377 251.122 4.59536 250.607 4.06406C250.093 3.53276 249.453 3.26426 248.688 3.26426C247.945 3.26426 247.305 3.5499 246.757 4.12119C246.208 4.69248 245.94 5.37803 245.94 6.18926C245.94 7.00049 246.214 7.69175 246.768 8.26304C247.317 8.83433 247.979 9.11426 248.745 9.11426C249.025 9.11426 249.299 9.07427 249.568 8.98857C249.836 8.90288 250.053 8.81147 250.225 8.70864C250.396 8.60581 250.55 8.49155 250.699 8.36016C250.847 8.22876 250.939 8.13735 250.984 8.08022C251.03 8.0231 251.064 7.98311 251.087 7.94883L250.562 7.42324L250.362 7.65176C250.236 7.81172 250.019 7.96597 249.722 8.12021C249.419 8.28018 249.093 8.35444 248.745 8.35444C248.219 8.35444 247.768 8.17163 247.38 7.80029C246.991 7.43467 246.785 6.99478 246.757 6.48633L251.321 6.49775ZM248.688 4.02979C249.179 4.02979 249.596 4.19546 249.945 4.52681C250.293 4.85815 250.499 5.28091 250.562 5.78364H246.757C246.82 5.30947 247.037 4.89814 247.402 4.54966C247.768 4.20688 248.197 4.02979 248.688 4.02979ZM252.841 9H253.658V3.38423H252.841V9ZM252.721 1.5104C252.721 1.65894 252.767 1.78462 252.87 1.88745C252.973 1.99028 253.098 2.03599 253.247 2.03599C253.395 2.03599 253.515 1.99028 253.618 1.88745C253.721 1.78462 253.772 1.65894 253.772 1.5104C253.772 1.36187 253.721 1.24189 253.618 1.13906C253.515 1.03623 253.395 0.984815 253.247 0.984815C253.098 0.984815 252.973 1.03623 252.87 1.13906C252.767 1.24189 252.721 1.36187 252.721 1.5104ZM258.463 3.26426H258.228C257.983 3.26426 257.748 3.29854 257.531 3.36138C257.314 3.42422 257.137 3.49277 257.006 3.57275C256.874 3.65273 256.754 3.73843 256.64 3.84126C256.526 3.94409 256.452 4.01265 256.423 4.05264C256.389 4.09263 256.366 4.1269 256.355 4.14976V3.38994H255.538V9.00571H256.355V5.90361C256.355 5.3666 256.526 4.92671 256.869 4.59536C257.211 4.2583 257.623 4.09263 258.108 4.09263H258.463V3.26426ZM264.073 6.19497C264.073 6.80054 263.867 7.3147 263.467 7.73174C263.067 8.14878 262.582 8.35444 262.022 8.35444C261.462 8.35444 260.976 8.14878 260.576 7.72603C260.176 7.30327 259.977 6.79482 259.977 6.18926C259.977 5.58369 260.176 5.07524 260.576 4.6582C260.976 4.24116 261.462 4.02979 262.022 4.02979C262.582 4.02979 263.067 4.24116 263.467 4.6582C263.867 5.07524 264.073 5.5894 264.073 6.19497ZM259.16 6.19497C259.16 7.01763 259.434 7.70889 259.994 8.27446C260.554 8.83433 261.228 9.11997 262.027 9.11997C262.822 9.11997 263.496 8.83433 264.05 8.27446C264.61 7.70889 264.884 7.01763 264.884 6.19497C264.884 5.37231 264.61 4.68105 264.05 4.11548C263.496 3.5499 262.822 3.26426 262.027 3.26426C261.228 3.26426 260.554 3.5499 259.994 4.11548C259.434 4.68105 259.16 5.37231 259.16 6.19497ZM269.751 4.02979L269.666 3.94409C269.62 3.89839 269.54 3.84126 269.437 3.76128C269.334 3.6813 269.214 3.60703 269.083 3.53276C268.946 3.4585 268.774 3.39565 268.569 3.34424C268.363 3.29282 268.152 3.26426 267.935 3.26426C267.398 3.26426 266.946 3.42422 266.592 3.73843C266.238 4.05835 266.061 4.42397 266.061 4.84673C266.061 5.20664 266.164 5.498 266.375 5.72651C266.586 5.95503 266.843 6.1207 267.14 6.22354C267.438 6.32637 267.729 6.42349 268.026 6.50918C268.323 6.59487 268.574 6.70913 268.786 6.85767C268.997 7.0062 269.106 7.19473 269.106 7.42896C269.106 7.69746 268.997 7.92026 268.786 8.09736C268.574 8.26875 268.272 8.36016 267.877 8.36016C267.706 8.36016 267.535 8.33159 267.369 8.27446C267.198 8.21733 267.06 8.14878 266.958 8.07451C266.849 8.00024 266.746 7.91455 266.655 7.82314C266.563 7.73174 266.501 7.66318 266.478 7.62891C266.449 7.59463 266.426 7.56606 266.415 7.54321L265.827 8.12593L265.901 8.23447C265.952 8.30303 266.032 8.38301 266.146 8.48013C266.261 8.57725 266.392 8.67437 266.546 8.77148C266.695 8.86289 266.889 8.94858 267.123 9.01714C267.358 9.08569 267.609 9.11997 267.877 9.11997C268.5 9.11997 268.997 8.9543 269.369 8.63438C269.734 8.31445 269.923 7.90884 269.923 7.42896C269.923 7.05762 269.814 6.75483 269.608 6.51489C269.397 6.27495 269.146 6.10356 268.849 6.00073C268.552 5.8979 268.254 5.80078 267.957 5.7208C267.66 5.64082 267.403 5.53228 267.198 5.39517C266.986 5.25806 266.883 5.07524 266.883 4.85244C266.883 4.63535 266.981 4.44111 267.175 4.28115C267.369 4.11548 267.62 4.0355 267.935 4.0355C268.175 4.0355 268.403 4.08691 268.62 4.19546C268.831 4.304 268.969 4.3897 269.026 4.45254C269.083 4.51538 269.129 4.57251 269.163 4.61821L269.751 4.02979ZM277.881 6.19497C277.881 6.77197 277.675 7.27471 277.264 7.70889C276.852 8.14307 276.395 8.35444 275.887 8.35444C275.407 8.35444 274.973 8.14878 274.59 7.72603C274.207 7.30327 274.013 6.79482 274.013 6.19497C274.013 5.59512 274.207 5.08667 274.59 4.66392C274.973 4.24116 275.407 4.02979 275.887 4.02979C276.395 4.02979 276.852 4.24688 277.264 4.68105C277.675 5.11523 277.881 5.61797 277.881 6.19497ZM277.881 4.26401L277.801 4.15547C277.744 4.08691 277.658 4.00693 277.544 3.9041C277.429 3.80698 277.298 3.70986 277.144 3.61846C276.995 3.52705 276.807 3.44136 276.584 3.3728C276.361 3.30425 276.127 3.26997 275.887 3.26997C275.173 3.26997 274.544 3.55562 274.007 4.13262C273.47 4.70391 273.202 5.39517 273.202 6.19497C273.202 6.99478 273.47 7.68604 274.007 8.25732C274.544 8.82861 275.173 9.11997 275.887 9.11997C276.127 9.11997 276.361 9.08569 276.59 9.01714C276.818 8.94858 277.001 8.8686 277.144 8.7772C277.292 8.68579 277.424 8.58867 277.549 8.47441C277.675 8.36016 277.761 8.27446 277.795 8.22876C277.835 8.18306 277.864 8.14878 277.881 8.12593V9.00571H278.698V0.813428H277.881V4.26401ZM285.13 6.19497C285.13 6.80054 284.925 7.3147 284.525 7.73174C284.125 8.14878 283.639 8.35444 283.079 8.35444C282.52 8.35444 282.034 8.14878 281.634 7.72603C281.234 7.30327 281.034 6.79482 281.034 6.18926C281.034 5.58369 281.234 5.07524 281.634 4.6582C282.034 4.24116 282.52 4.02979 283.079 4.02979C283.639 4.02979 284.125 4.24116 284.525 4.6582C284.925 5.07524 285.13 5.5894 285.13 6.19497ZM280.217 6.19497C280.217 7.01763 280.492 7.70889 281.051 8.27446C281.611 8.83433 282.285 9.11997 283.085 9.11997C283.879 9.11997 284.553 8.83433 285.108 8.27446C285.667 7.70889 285.942 7.01763 285.942 6.19497C285.942 5.37231 285.667 4.68105 285.108 4.11548C284.553 3.5499 283.879 3.26426 283.085 3.26426C282.285 3.26426 281.611 3.5499 281.051 4.11548C280.492 4.68105 280.217 5.37231 280.217 6.19497ZM290.872 8.18306V5.13809H294.671V4.32114H290.872V1.63037H295.608V0.807715H289.992V9H295.728V8.18306H290.872ZM301.921 5.8979H298.761L300.344 2.03599L301.921 5.8979ZM302.275 6.72056L303.212 9H304.143L300.749 0.807715H299.932L296.539 9H297.476L298.413 6.72056H302.275ZM305.668 0.807715V9H308.245C309.433 9 310.444 8.6001 311.273 7.79458C312.095 6.99478 312.512 6.0293 312.512 4.90386C312.512 3.78413 312.095 2.81865 311.273 2.01313C310.444 1.21333 309.433 0.807715 308.245 0.807715H305.668ZM308.245 1.63037C309.204 1.63037 310.01 1.95029 310.661 2.58442C311.313 3.22427 311.638 3.99551 311.638 4.90957C311.638 5.82363 311.313 6.59487 310.661 7.229C310.01 7.86885 309.204 8.18306 308.245 8.18306H306.548V1.63037H308.245ZM313.86 8.53154C313.86 8.70293 313.912 8.84575 314.015 8.9543C314.118 9.06284 314.26 9.11426 314.437 9.11426C314.62 9.11426 314.763 9.06284 314.866 8.9543C314.969 8.84575 315.02 8.70293 315.02 8.53154C315.02 8.36016 314.969 8.22305 314.866 8.1145C314.763 8.00596 314.62 7.94883 314.437 7.94883C314.26 7.94883 314.118 8.00596 314.015 8.1145C313.912 8.22305 313.86 8.36016 313.86 8.53154ZM323.572 5.8979H320.413L321.996 2.03599L323.572 5.8979ZM323.927 6.72056L324.864 9H325.795L322.401 0.807715H321.584L318.191 9H319.128L320.065 6.72056H323.927ZM327.846 0.807715H327.029V9H327.846V0.807715ZM330.656 0.807715H329.839V9H330.656V0.807715ZM337.746 3.26426H337.512C337.266 3.26426 337.032 3.29854 336.815 3.36138C336.598 3.42422 336.421 3.49277 336.289 3.57275C336.158 3.65273 336.038 3.73843 335.924 3.84126C335.809 3.94409 335.735 4.01265 335.707 4.05264C335.672 4.09263 335.649 4.1269 335.638 4.14976V3.38994H334.821V9.00571H335.638V5.90361C335.638 5.3666 335.809 4.92671 336.152 4.59536C336.495 4.2583 336.906 4.09263 337.392 4.09263H337.746V3.26426ZM338.854 9H339.671V3.38423H338.854V9ZM338.734 1.5104C338.734 1.65894 338.78 1.78462 338.883 1.88745C338.986 1.99028 339.111 2.03599 339.26 2.03599C339.409 2.03599 339.529 1.99028 339.631 1.88745C339.734 1.78462 339.786 1.65894 339.786 1.5104C339.786 1.36187 339.734 1.24189 339.631 1.13906C339.529 1.03623 339.409 0.984815 339.26 0.984815C339.111 0.984815 338.986 1.03623 338.883 1.13906C338.78 1.24189 338.734 1.36187 338.734 1.5104ZM345.641 8.65151C345.641 9.23423 345.447 9.71982 345.07 10.1083C344.693 10.5025 344.236 10.6967 343.71 10.6967C343.493 10.6967 343.282 10.6682 343.076 10.5996C342.871 10.5311 342.699 10.4568 342.573 10.3768C342.442 10.2968 342.316 10.1997 342.202 10.0912C342.088 9.98262 342.008 9.90835 341.974 9.86265C341.939 9.81694 341.911 9.78267 341.899 9.75981L341.374 10.2854L341.465 10.4054C341.522 10.4911 341.614 10.5882 341.745 10.7024C341.877 10.8167 342.031 10.931 342.202 11.0452C342.374 11.1595 342.591 11.2566 342.859 11.3366C343.128 11.4166 343.413 11.4565 343.71 11.4565C344.476 11.4565 345.121 11.188 345.658 10.6453C346.195 10.1083 346.464 9.43989 346.464 8.65151V3.38423H345.641V4.20117L345.573 4.10977C345.527 4.05264 345.453 3.97266 345.35 3.87554C345.247 3.78413 345.127 3.68701 344.99 3.59561C344.847 3.5042 344.67 3.42422 344.453 3.36138C344.236 3.29854 344.007 3.26426 343.767 3.26426C343.059 3.26426 342.442 3.53848 341.916 4.08691C341.397 4.63535 341.134 5.29805 341.134 6.075C341.134 6.85767 341.397 7.52036 341.922 8.0688C342.448 8.61724 343.059 8.89146 343.767 8.89146C344.007 8.89146 344.242 8.85718 344.459 8.78862C344.676 8.72007 344.853 8.6458 344.984 8.56582C345.121 8.48584 345.241 8.38872 345.356 8.28018C345.47 8.16592 345.538 8.09165 345.567 8.05166C345.601 8.00596 345.624 7.97739 345.636 7.95454L345.641 8.65151ZM341.951 6.08071C341.951 5.50942 342.139 5.02383 342.505 4.62964C342.871 4.22974 343.293 4.0355 343.767 4.0355C344.276 4.0355 344.716 4.22974 345.081 4.62393C345.453 5.0124 345.636 5.498 345.636 6.08071C345.636 6.65771 345.453 7.14331 345.081 7.5375C344.716 7.92598 344.276 8.12593 343.767 8.12593C343.293 8.12593 342.871 7.92598 342.505 7.53179C342.139 7.13188 341.951 6.652 341.951 6.08071ZM349.212 0.807715H348.395V9H349.212V5.8979C349.212 5.35518 349.378 4.90957 349.715 4.56108C350.046 4.20688 350.463 4.0355 350.966 4.0355C351.411 4.0355 351.777 4.18403 352.063 4.4811C352.348 4.77817 352.491 5.17808 352.491 5.66938V9.00571H353.308V5.66938C353.308 4.94385 353.097 4.36113 352.674 3.92124C352.251 3.48706 351.703 3.26426 351.023 3.26426C350.794 3.26426 350.577 3.29854 350.366 3.36709C350.16 3.43564 349.989 3.50991 349.857 3.58989C349.732 3.66987 349.612 3.76699 349.498 3.87554C349.383 3.9898 349.315 4.06406 349.28 4.10405C349.246 4.14976 349.223 4.17832 349.206 4.20117L349.212 0.807715ZM355.707 2.80151C355.707 3.18999 355.547 3.38423 355.239 3.38423H354.593V4.14404H355.65V7.48037C355.65 8.00596 355.782 8.40586 356.056 8.6915C356.33 8.97715 356.707 9.11426 357.193 9.11426C357.49 9.11997 357.753 9.06284 357.987 8.94287V8.18306L357.884 8.22876C357.815 8.25161 357.724 8.28018 357.598 8.30874C357.473 8.34302 357.353 8.35444 357.227 8.35444C356.719 8.36016 356.467 8.0688 356.467 7.48037V4.14404H357.695V3.38423H356.467V1.5104H355.707V2.80151ZM364.551 3.26426H364.317C364.071 3.26426 363.837 3.29854 363.62 3.36138C363.403 3.42422 363.226 3.49277 363.094 3.57275C362.963 3.65273 362.843 3.73843 362.729 3.84126C362.614 3.94409 362.54 4.01265 362.511 4.05264C362.477 4.09263 362.454 4.1269 362.443 4.14976V3.38994H361.626V9.00571H362.443V5.90361C362.443 5.3666 362.614 4.92671 362.957 4.59536C363.3 4.2583 363.711 4.09263 364.197 4.09263H364.551V3.26426ZM370.629 6.49775L370.687 6.075C370.687 5.26377 370.43 4.59536 369.915 4.06406C369.401 3.53276 368.761 3.26426 367.996 3.26426C367.253 3.26426 366.613 3.5499 366.065 4.12119C365.516 4.69248 365.248 5.37803 365.248 6.18926C365.248 7.00049 365.522 7.69175 366.076 8.26304C366.625 8.83433 367.287 9.11426 368.053 9.11426C368.333 9.11426 368.607 9.07427 368.876 8.98857C369.144 8.90288 369.361 8.81147 369.533 8.70864C369.704 8.60581 369.858 8.49155 370.007 8.36016C370.155 8.22876 370.247 8.13735 370.292 8.08022C370.338 8.0231 370.372 7.98311 370.395 7.94883L369.87 7.42324L369.67 7.65176C369.544 7.81172 369.327 7.96597 369.03 8.12021C368.727 8.28018 368.401 8.35444 368.053 8.35444C367.527 8.35444 367.076 8.17163 366.688 7.80029C366.299 7.43467 366.093 6.99478 366.065 6.48633L370.629 6.49775ZM367.996 4.02979C368.487 4.02979 368.904 4.19546 369.253 4.52681C369.601 4.85815 369.807 5.28091 369.87 5.78364H366.065C366.128 5.30947 366.345 4.89814 366.71 4.54966C367.076 4.20688 367.505 4.02979 367.996 4.02979ZM375.543 4.02979L375.457 3.94409C375.411 3.89839 375.331 3.84126 375.228 3.76128C375.126 3.6813 375.006 3.60703 374.874 3.53276C374.737 3.4585 374.566 3.39565 374.36 3.34424C374.154 3.29282 373.943 3.26426 373.726 3.26426C373.189 3.26426 372.738 3.42422 372.383 3.73843C372.029 4.05835 371.852 4.42397 371.852 4.84673C371.852 5.20664 371.955 5.498 372.166 5.72651C372.378 5.95503 372.635 6.1207 372.932 6.22354C373.229 6.32637 373.52 6.42349 373.817 6.50918C374.114 6.59487 374.366 6.70913 374.577 6.85767C374.788 7.0062 374.897 7.19473 374.897 7.42896C374.897 7.69746 374.788 7.92026 374.577 8.09736C374.366 8.26875 374.063 8.36016 373.669 8.36016C373.497 8.36016 373.326 8.33159 373.16 8.27446C372.989 8.21733 372.852 8.14878 372.749 8.07451C372.64 8.00024 372.538 7.91455 372.446 7.82314C372.355 7.73174 372.292 7.66318 372.269 7.62891C372.241 7.59463 372.218 7.56606 372.206 7.54321L371.618 8.12593L371.692 8.23447C371.743 8.30303 371.823 8.38301 371.938 8.48013C372.052 8.57725 372.183 8.67437 372.338 8.77148C372.486 8.86289 372.68 8.94858 372.915 9.01714C373.149 9.08569 373.4 9.11997 373.669 9.11997C374.291 9.11997 374.788 8.9543 375.16 8.63438C375.525 8.31445 375.714 7.90884 375.714 7.42896C375.714 7.05762 375.605 6.75483 375.4 6.51489C375.188 6.27495 374.937 6.10356 374.64 6.00073C374.343 5.8979 374.046 5.80078 373.749 5.7208C373.452 5.64082 373.195 5.53228 372.989 5.39517C372.778 5.25806 372.675 5.07524 372.675 4.85244C372.675 4.63535 372.772 4.44111 372.966 4.28115C373.16 4.11548 373.412 4.0355 373.726 4.0355C373.966 4.0355 374.194 4.08691 374.411 4.19546C374.623 4.304 374.76 4.3897 374.817 4.45254C374.874 4.51538 374.92 4.57251 374.954 4.61821L375.543 4.02979ZM382.147 6.49775L382.204 6.075C382.204 5.26377 381.947 4.59536 381.433 4.06406C380.918 3.53276 380.279 3.26426 379.513 3.26426C378.77 3.26426 378.13 3.5499 377.582 4.12119C377.034 4.69248 376.765 5.37803 376.765 6.18926C376.765 7.00049 377.039 7.69175 377.593 8.26304C378.142 8.83433 378.805 9.11426 379.57 9.11426C379.85 9.11426 380.124 9.07427 380.393 8.98857C380.661 8.90288 380.878 8.81147 381.05 8.70864C381.221 8.60581 381.375 8.49155 381.524 8.36016C381.672 8.22876 381.764 8.13735 381.81 8.08022C381.855 8.0231 381.89 7.98311 381.912 7.94883L381.387 7.42324L381.187 7.65176C381.061 7.81172 380.844 7.96597 380.547 8.12021C380.244 8.28018 379.919 8.35444 379.57 8.35444C379.045 8.35444 378.593 8.17163 378.205 7.80029C377.816 7.43467 377.611 6.99478 377.582 6.48633L382.147 6.49775ZM379.513 4.02979C380.004 4.02979 380.421 4.19546 380.77 4.52681C381.118 4.85815 381.324 5.28091 381.387 5.78364H377.582C377.645 5.30947 377.862 4.89814 378.228 4.54966C378.593 4.20688 379.022 4.02979 379.513 4.02979ZM386.591 3.26426H386.357C386.111 3.26426 385.877 3.29854 385.66 3.36138C385.443 3.42422 385.266 3.49277 385.135 3.57275C385.003 3.65273 384.883 3.73843 384.769 3.84126C384.655 3.94409 384.58 4.01265 384.552 4.05264C384.518 4.09263 384.495 4.1269 384.483 4.14976V3.38994H383.666V9.00571H384.483V5.90361C384.483 5.3666 384.655 4.92671 384.997 4.59536C385.34 4.2583 385.752 4.09263 386.237 4.09263H386.591V3.26426ZM390.39 9L392.676 3.38423H391.796L389.985 7.88599L388.168 3.38423H387.288L389.573 9H390.39ZM398.76 6.49775L398.817 6.075C398.817 5.26377 398.56 4.59536 398.046 4.06406C397.531 3.53276 396.892 3.26426 396.126 3.26426C395.383 3.26426 394.744 3.5499 394.195 4.12119C393.647 4.69248 393.378 5.37803 393.378 6.18926C393.378 7.00049 393.652 7.69175 394.207 8.26304C394.755 8.83433 395.418 9.11426 396.183 9.11426C396.463 9.11426 396.737 9.07427 397.006 8.98857C397.274 8.90288 397.491 8.81147 397.663 8.70864C397.834 8.60581 397.989 8.49155 398.137 8.36016C398.286 8.22876 398.377 8.13735 398.423 8.08022C398.468 8.0231 398.503 7.98311 398.526 7.94883L398 7.42324L397.8 7.65176C397.674 7.81172 397.457 7.96597 397.16 8.12021C396.857 8.28018 396.532 8.35444 396.183 8.35444C395.658 8.35444 395.206 8.17163 394.818 7.80029C394.429 7.43467 394.224 6.99478 394.195 6.48633L398.76 6.49775ZM396.126 4.02979C396.617 4.02979 397.034 4.19546 397.383 4.52681C397.731 4.85815 397.937 5.28091 398 5.78364H394.195C394.258 5.30947 394.475 4.89814 394.841 4.54966C395.206 4.20688 395.635 4.02979 396.126 4.02979ZM404.547 6.19497C404.547 6.77197 404.341 7.27471 403.93 7.70889C403.519 8.14307 403.062 8.35444 402.553 8.35444C402.073 8.35444 401.639 8.14878 401.256 7.72603C400.874 7.30327 400.679 6.79482 400.679 6.19497C400.679 5.59512 400.874 5.08667 401.256 4.66392C401.639 4.24116 402.073 4.02979 402.553 4.02979C403.062 4.02979 403.519 4.24688 403.93 4.68105C404.341 5.11523 404.547 5.61797 404.547 6.19497ZM404.547 4.26401L404.467 4.15547C404.41 4.08691 404.324 4.00693 404.21 3.9041C404.096 3.80698 403.964 3.70986 403.81 3.61846C403.661 3.52705 403.473 3.44136 403.25 3.3728C403.027 3.30425 402.793 3.26997 402.553 3.26997C401.839 3.26997 401.211 3.55562 400.674 4.13262C400.137 4.70391 399.868 5.39517 399.868 6.19497C399.868 6.99478 400.137 7.68604 400.674 8.25732C401.211 8.82861 401.839 9.11997 402.553 9.11997C402.793 9.11997 403.027 9.08569 403.256 9.01714C403.484 8.94858 403.667 8.8686 403.81 8.7772C403.958 8.68579 404.09 8.58867 404.216 8.47441C404.341 8.36016 404.427 8.27446 404.461 8.22876C404.501 8.18306 404.53 8.14878 404.547 8.12593V9.00571H405.364V0.813428H404.547V4.26401ZM407.061 8.53154C407.061 8.70293 407.112 8.84575 407.215 8.9543C407.318 9.06284 407.46 9.11426 407.638 9.11426C407.82 9.11426 407.963 9.06284 408.066 8.9543C408.169 8.84575 408.22 8.70293 408.22 8.53154C408.22 8.36016 408.169 8.22305 408.066 8.1145C407.963 8.00596 407.82 7.94883 407.638 7.94883C407.46 7.94883 407.318 8.00596 407.215 8.1145C407.112 8.22305 407.061 8.36016 407.061 8.53154Z" fill="#FCFCFC"/>
</svg>
