<svg width="64" height="64" viewBox="0 0 64 64" fill="none" xmlns="http://www.w3.org/2000/svg">
<path d="M27.25 22.5V20.125C27.25 17.75 29.625 16.1666 32 16.1666H40.7083C40.7083 16.1666 35.1667 17.75 35.1667 20.9166V22.5M23.2917 28.0416C23.2917 27.6217 23.4585 27.219 23.7554 26.922C24.0523 26.6251 24.4551 26.4583 24.875 26.4583H37.5417C37.9616 26.4583 38.3643 26.6251 38.6613 26.922C38.9582 27.219 39.125 27.6217 39.125 28.0416V43.0833C39.125 43.0833 39.125 47.8333 34.375 47.8333H28.0417C23.2917 47.8333 23.2917 43.0833 23.2917 43.0833V28.0416ZM27.25 22.5H35.1667V26.4583H27.25V22.5Z" stroke="#EAB308" stroke-width="4" stroke-linecap="round" stroke-linejoin="round"/>
<circle cx="32" cy="32" r="31" stroke="#EAB308" stroke-width="2"/>
</svg>
