<svg width="28" height="331" viewBox="0 0 28 331" fill="none" xmlns="http://www.w3.org/2000/svg">
<path d="M9 1.72571V3.26379L12.7803 3.26379L12.7803 5.50598L9 7.60461V9.28625L12.917 7.04407L13.0059 7.24231C13.0605 7.37903 13.1631 7.54309 13.3135 7.7345C13.4639 7.9259 13.6348 8.11731 13.8398 8.30872C14.0381 8.50012 14.3115 8.66418 14.6602 8.8009C15.0088 8.93762 15.3848 9.00598 15.7881 9.00598C16.6357 9.00598 17.3535 8.7052 17.9346 8.11047C18.5088 7.50891 18.8027 6.75696 18.8027 5.85461V1.72571L9 1.72571ZM15.7881 7.46106C15.3301 7.46106 14.9473 7.30383 14.6396 6.99622C14.332 6.6886 14.1816 6.30579 14.1816 5.85461L14.1816 3.26379L17.4014 3.26379V5.85461C17.4014 6.30579 17.2441 6.6886 16.9365 6.99622C16.6289 7.30383 16.2461 7.46106 15.7881 7.46106ZM13.9014 20.416C14.9131 20.416 15.7744 20.7646 16.4785 21.4687C17.1826 22.1728 17.5381 23.0341 17.5381 24.0527C17.5381 25.0713 17.1826 25.9326 16.4785 26.6367C15.7744 27.3408 14.9131 27.6963 13.9014 27.6963C12.8828 27.6963 12.0215 27.3408 11.3174 26.6367C10.6064 25.9326 10.2578 25.0713 10.2578 24.0527C10.2578 23.0341 10.6064 22.1728 11.3174 21.4687C12.0215 20.7646 12.8828 20.416 13.9014 20.416ZM13.9014 18.8779C12.4932 18.8779 11.2969 19.3701 10.3262 20.3681C9.34863 21.3593 8.86328 22.5898 8.86328 24.0527C8.86328 25.5156 9.34863 26.7461 10.3262 27.7373C11.2969 28.7353 12.4932 29.2275 13.9014 29.2275C15.3096 29.2275 16.499 28.7353 17.4766 27.7373C18.4473 26.7461 18.9395 25.5156 18.9395 24.0527C18.9395 22.5898 18.4473 21.3593 17.4766 20.3681C16.499 19.3701 15.3096 18.8779 13.9014 18.8779ZM9 45.6893H10.4014L10.4014 40.9314H18.8027V39.3934H9V45.6893ZM10.4014 56.9625H13.4092V61.235H14.8105V56.9625H17.4014V62.3561H18.8027V55.4245H9V62.4928H10.4014V56.9625ZM18.8027 83.221H9V84.7591H12.5V87.138C12.5 88.0677 12.8008 88.8538 13.416 89.4827C14.0244 90.1116 14.7695 90.4329 15.6445 90.4329C16.5195 90.4329 17.2646 90.1116 17.8799 89.4827C18.4951 88.8538 18.7959 88.0677 18.7959 87.138L18.8027 83.221ZM17.3945 87.138C17.3945 87.6165 17.2305 88.0335 16.8887 88.3753C16.5537 88.7171 16.1367 88.888 15.6445 88.888C15.1523 88.888 14.7354 88.7171 14.4004 88.3753C14.0654 88.0335 13.9014 87.6165 13.9014 87.138V84.7591H17.4014L17.3945 87.138ZM9 98.6095V100.216L11.5908 101.269L11.5908 105.61L9 106.662V108.269L18.8027 104.208L18.8027 102.67L9 98.6095ZM17.0527 103.443L12.9922 105.049V101.829L17.0527 103.443ZM9 117.867V119.405H12.7803L12.7803 121.647L9 123.746V125.428L12.917 123.186L13.0059 123.384C13.0605 123.521 13.1631 123.685 13.3135 123.876C13.4639 124.067 13.6348 124.259 13.8398 124.45C14.0381 124.642 14.3115 124.806 14.6602 124.942C15.0088 125.079 15.3848 125.147 15.7881 125.147C16.6357 125.147 17.3535 124.847 17.9346 124.252C18.5088 123.65 18.8027 122.898 18.8027 121.996V117.867H9ZM15.7881 123.603C15.3301 123.603 14.9473 123.445 14.6396 123.138C14.332 122.83 14.1816 122.447 14.1816 121.996L14.1816 119.405H17.4014V121.996C17.4014 122.447 17.2441 122.83 16.9365 123.138C16.6289 123.445 16.2461 123.603 15.7881 123.603ZM9 134.459V136.065L11.5908 137.118L11.5908 141.459L9 142.512V144.118L18.8027 140.057V138.519L9 134.459ZM17.0527 139.292L12.9922 140.898L12.9922 137.679L17.0527 139.292ZM9 168.626C9 169.522 9.28027 170.274 9.84766 170.876C10.4082 171.477 11.085 171.778 11.8711 171.778C12.165 171.778 12.4521 171.723 12.7256 171.614C12.999 171.504 13.2246 171.388 13.3955 171.265C13.5732 171.142 13.7305 170.992 13.874 170.821C14.0176 170.643 14.1133 170.527 14.1543 170.459C14.1953 170.39 14.2295 170.342 14.2432 170.308L14.4414 170.561C14.5713 170.718 14.7969 170.876 15.125 171.04C15.4531 171.204 15.8154 171.286 16.2051 171.286C16.8887 171.286 17.4902 171.005 18.0098 170.445C18.5361 169.884 18.7959 169.208 18.7959 168.415L18.7959 164.429H8.99316L9 168.626ZM10.3262 165.967H13.5459V168.626C13.5459 169.085 13.3955 169.467 13.0811 169.775C12.7734 170.083 12.3906 170.24 11.9326 170.24C11.4814 170.24 11.0986 170.083 10.791 169.775C10.4834 169.46 10.3262 169.078 10.3262 168.626V165.967ZM17.4629 168.415C17.4629 168.797 17.3398 169.112 17.0869 169.365C16.834 169.618 16.5195 169.748 16.1367 169.748C15.7539 169.748 15.4395 169.618 15.1865 169.365C14.9336 169.112 14.8037 168.797 14.8037 168.415V165.967H17.4629L17.4629 168.415ZM9 180.515V182.121L11.5908 183.174V187.515L9 188.568V190.174L18.8027 186.114V184.576L9 180.515ZM17.0527 185.348L12.9922 186.954V183.735L17.0527 185.348ZM9 199.773V201.311H18.8027V199.773H9ZM15.3711 215.448L18.8027 212.994V211.176L14.1133 214.532L9 210.896V212.714L12.8486 215.448L9 218.176V219.994L14.1133 216.357L18.8027 219.714V217.896L15.3711 215.448ZM13.9014 230.01C14.9131 230.01 15.7744 230.358 16.4785 231.062C17.1826 231.766 17.5381 232.628 17.5381 233.646C17.5381 234.665 17.1826 235.526 16.4785 236.23C15.7744 236.934 14.9131 237.29 13.9014 237.29C12.8828 237.29 12.0215 236.934 11.3174 236.23C10.6064 235.526 10.2578 234.665 10.2578 233.646C10.2578 232.628 10.6064 231.766 11.3174 231.062C12.0215 230.358 12.8828 230.01 13.9014 230.01ZM13.9014 228.472C12.4932 228.472 11.2969 228.964 10.3262 229.962C9.34863 230.953 8.86328 232.183 8.86328 233.646C8.86328 235.109 9.34863 236.34 10.3262 237.331C11.2969 238.329 12.4932 238.821 13.9014 238.821C15.3096 238.821 16.499 238.329 17.4766 237.331C18.4473 236.34 18.9395 235.109 18.9395 233.646C18.9395 232.183 18.4473 230.953 17.4766 229.962C16.499 228.964 15.3096 228.472 13.9014 228.472Z" fill="white"/>
<rect x="0.5" y="275.5" width="27" height="55" rx="13.5" stroke="white"/>
<path d="M13.6464 321.354C13.8417 321.549 14.1583 321.549 14.3536 321.354L17.5355 318.172C17.7308 317.976 17.7308 317.66 17.5355 317.464C17.3403 317.269 17.0237 317.269 16.8284 317.464L14 320.293L11.1716 317.464C10.9763 317.269 10.6597 317.269 10.4645 317.464C10.2692 317.66 10.2692 317.976 10.4645 318.172L13.6464 321.354ZM13.5 285L13.5 321L14.5 321L14.5 285L13.5 285Z" fill="white"/>
</svg>
